<?xml version="1.0" standalone="no"?>
<!DOCTYPE svg PUBLIC "-//W3C//DTD SVG 20010904//EN"
 "http://www.w3.org/TR/2001/REC-SVG-20010904/DTD/svg10.dtd">
<svg version="1.0" xmlns="http://www.w3.org/2000/svg"
 width="1080.000000pt" height="1080.000000pt" viewBox="0 0 1080.000000 1080.000000"
 preserveAspectRatio="xMidYMid meet">
<metadata>
Created by potrace 1.14, written by Peter Selinger 2001-2017
</metadata>
<g transform="translate(0.000000,1080.000000) scale(0.100000,-0.100000)"
fill="#000000" stroke="none">
<path d="M5406 10461 c-3 -4 -23 -11 -44 -15 -22 -3 -52 -12 -67 -20 -16 -8
-32 -13 -37 -10 -4 3 -8 -11 -8 -31 0 -26 3 -34 13 -29 7 5 6 0 -3 -11 -9 -11
-10 -16 -2 -11 6 4 12 4 13 -1 3 -31 11 -58 19 -63 5 -3 12 -30 16 -60 3 -30
10 -56 15 -58 5 -2 2 -10 -6 -18 -9 -9 -20 -12 -27 -7 -7 4 -15 8 -18 8 -59 8
-106 19 -111 26 -3 5 -24 11 -46 13 -40 4 -41 3 -47 -30 -4 -19 -12 -34 -18
-34 -6 0 -9 -3 -5 -6 3 -3 1 -18 -5 -33 -10 -26 -12 -79 -4 -116 3 -11 5 -28
5 -38 1 -12 5 -16 14 -11 7 5 6 0 -3 -11 -8 -10 -10 -16 -3 -12 7 5 13 -6 18
-32 5 -33 10 -39 28 -36 11 3 23 9 27 15 3 5 19 11 34 12 16 2 31 8 33 16 4
10 8 10 21 0 9 -7 13 -8 9 -2 -4 7 6 11 26 12 18 1 43 4 57 6 22 2 26 -2 28
-23 1 -18 -1 -22 -7 -13 -5 9 -10 -10 -13 -50 -6 -71 -10 -91 -19 -98 -4 -3
-9 -26 -12 -53 -7 -54 -13 -67 -31 -67 -8 0 -19 -7 -26 -15 -6 -8 -15 -14 -18
-13 -19 2 -33 -3 -28 -10 3 -5 -1 -9 -9 -9 -8 0 -13 5 -12 11 1 6 -3 10 -9 9
-6 -1 -14 16 -18 38 -4 28 -10 38 -19 33 -7 -5 -6 0 3 12 8 10 11 16 7 13 -9
-8 -57 37 -57 52 0 6 -4 7 -10 4 -5 -3 -10 -1 -10 5 0 6 -11 15 -25 22 -13 6
-22 15 -19 20 3 5 2 8 -3 7 -15 -2 -53 13 -53 22 0 5 -6 9 -14 9 -8 0 -22 8
-31 17 -21 20 -121 21 -109 1 5 -7 -20 -12 -30 -5 -2 1 -13 -6 -23 -15 -11
-10 -34 -21 -51 -24 -18 -4 -32 -10 -32 -15 0 -5 -5 -9 -11 -9 -5 0 -8 4 -5 8
6 9 -23 9 -39 0 -18 -10 -147 -10 -141 1 4 6 -9 13 -29 17 -22 4 -32 10 -28
18 4 6 -1 4 -11 -4 -10 -8 -30 -16 -45 -18 -14 -2 -27 -7 -29 -13 -2 -5 -11
-9 -21 -9 -9 0 -27 -8 -40 -17 -14 -9 -21 -11 -17 -4 6 9 3 9 -13 -1 -12 -7
-25 -24 -28 -38 -3 -14 -16 -41 -27 -60 -26 -42 -48 -88 -56 -114 -5 -18 -6
-18 -23 -2 -9 10 -38 20 -64 22 -78 8 -101 12 -114 20 -8 4 -10 3 -5 -4 4 -7
3 -12 -3 -12 -5 0 -11 4 -13 9 -3 8 -137 20 -231 21 -27 0 -46 4 -43 8 11 19
-70 -1 -118 -29 -14 -8 -16 -8 -10 3 6 11 5 11 -9 0 -9 -8 -30 -16 -48 -19
-18 -2 -42 -11 -53 -18 -21 -14 -24 -15 -52 -15 -9 0 -12 -5 -8 -12 5 -8 0 -7
-11 2 -11 9 -16 10 -11 3 6 -12 -18 -19 -47 -14 -4 1 -10 -6 -13 -14 -5 -13
-9 -13 -22 -3 -12 10 -14 10 -8 1 4 -8 1 -13 -9 -13 -9 0 -19 -9 -22 -20 -3
-11 -12 -20 -21 -20 -8 0 -13 -3 -9 -6 11 -11 -45 -54 -70 -54 -13 0 -22 -4
-19 -9 3 -5 -6 -12 -20 -15 -15 -4 -24 -9 -21 -12 3 -3 -8 -19 -24 -35 -16
-16 -29 -34 -29 -40 0 -6 -4 -7 -10 -4 -5 3 -10 1 -10 -5 0 -6 -14 -24 -30
-40 -17 -17 -28 -30 -26 -30 5 0 -22 -31 -75 -85 -16 -16 -29 -36 -29 -43 0
-7 -4 -11 -9 -7 -5 3 -12 -4 -16 -15 -4 -11 -11 -18 -16 -15 -5 4 -9 -1 -9 -9
0 -8 -8 -20 -17 -25 -10 -6 -13 -11 -8 -11 6 0 -1 -7 -15 -15 -15 -9 -19 -14
-10 -15 13 0 13 -1 0 -10 -15 -9 -18 -22 -21 -85 -1 -16 -7 -36 -13 -44 -9
-12 -8 -13 2 -7 11 7 12 4 4 -11 -10 -18 -26 -173 -23 -222 0 -14 -3 -27 -8
-31 -6 -3 -11 -29 -12 -59 -2 -33 -8 -55 -16 -58 -7 -3 -13 -11 -13 -19 0 -8
-7 -14 -15 -14 -8 0 -18 -12 -21 -26 -5 -19 -9 -22 -15 -12 -7 10 -9 9 -9 -4
0 -9 -6 -23 -13 -30 -7 -7 -16 -21 -20 -31 -4 -10 -11 -15 -17 -12 -14 9 -12
-28 3 -44 10 -11 9 -12 -3 -6 -13 8 -13 6 -1 -8 7 -9 15 -34 18 -54 3 -21 9
-40 13 -43 4 -3 10 -20 13 -38 3 -19 8 -36 11 -39 3 -3 29 -7 58 -10 29 -3 58
-9 63 -14 6 -4 34 -9 63 -11 29 -2 52 -7 52 -11 0 -5 6 -5 13 -1 6 4 9 4 5 -1
-4 -4 -3 -16 3 -27 11 -21 -3 -41 -39 -52 -12 -4 -21 -13 -19 -19 1 -7 -4 -11
-10 -10 -7 2 -16 -9 -19 -25 -4 -15 -10 -29 -13 -32 -10 -8 -31 -43 -44 -72
-6 -16 -15 -28 -19 -28 -4 0 -8 -8 -8 -17 0 -15 2 -16 10 -3 8 12 10 11 10 -7
0 -12 11 -43 25 -70 24 -44 28 -47 60 -44 29 2 35 -1 36 -18 1 -12 3 -25 4
-31 1 -5 3 -24 4 -41 1 -21 5 -28 14 -23 10 6 10 4 0 -7 -7 -7 -13 -18 -13
-23 0 -6 4 -5 9 2 5 9 11 -13 15 -60 4 -40 13 -76 19 -80 8 -5 7 -8 -3 -8 -11
0 -12 -2 -3 -8 7 -4 15 -32 18 -62 4 -30 12 -61 18 -69 7 -9 8 -12 1 -8 -6 3
-11 0 -11 -8 0 -8 4 -12 9 -9 4 3 9 -7 9 -23 2 -59 9 -96 20 -109 9 -11 8 -14
-2 -14 -10 0 -10 -3 -3 -8 14 -8 28 -115 19 -143 -4 -10 -11 -16 -17 -13 -6 4
-8 2 -4 -4 3 -6 2 -13 -4 -17 -6 -4 -8 -11 -5 -16 4 -5 -1 -9 -9 -9 -9 0 -17
-3 -17 -7 -7 -38 -4 -55 10 -63 9 -5 12 -10 7 -10 -5 0 2 -11 15 -25 47 -48
54 -61 57 -95 1 -19 7 -37 13 -40 5 -4 11 -32 12 -63 2 -48 -1 -59 -20 -72
-12 -9 -29 -22 -37 -30 -11 -11 -16 -12 -19 -2 -3 7 -6 5 -6 -5 -1 -10 -7 -18
-15 -18 -8 0 -17 -13 -21 -30 -4 -16 -10 -30 -15 -30 -5 0 -11 -13 -15 -30 -4
-16 -11 -32 -16 -35 -14 -10 -10 -61 6 -75 8 -7 15 -19 15 -28 0 -8 3 -12 7
-9 4 4 12 -6 19 -22 8 -19 23 -33 38 -37 14 -3 26 -10 26 -15 0 -5 10 -9 23
-9 12 0 31 -9 40 -21 15 -17 16 -23 5 -37 -10 -12 -10 -14 0 -8 25 15 11 -16
-20 -45 -18 -16 -28 -29 -23 -30 6 0 0 -4 -12 -9 -13 -5 -23 -17 -23 -25 0 -9
-4 -14 -9 -10 -5 3 -12 -4 -16 -15 -4 -11 -10 -18 -15 -15 -25 15 -21 -103 4
-134 9 -12 8 -13 -4 -6 -12 7 -13 6 -3 -6 11 -14 20 -44 22 -75 1 -7 13 -15
28 -19 15 -3 30 -10 33 -15 3 -5 19 -11 35 -14 16 -3 31 -10 33 -15 2 -6 19
-13 38 -17 19 -3 34 -10 34 -14 0 -5 14 -11 30 -15 17 -4 28 -10 25 -14 -2 -4
15 -9 38 -10 23 -1 56 -4 72 -6 17 -2 47 -3 68 -4 34 -1 37 -3 37 -32 0 -16
-4 -28 -9 -25 -5 3 -10 -51 -10 -125 -1 -73 2 -128 7 -125 5 3 9 -1 9 -9 0 -8
-5 -12 -10 -8 -5 3 -4 -4 3 -16 7 -14 12 -79 13 -167 l2 -144 -25 -1 c-14 -1
-38 -3 -55 -4 -16 -2 -39 -3 -51 -4 -17 -1 -20 -7 -19 -41 1 -30 -3 -40 -14
-42 -9 0 -21 -2 -27 -2 -15 -2 -84 -71 -84 -85 0 -6 -4 -11 -9 -11 -5 0 -12
-17 -16 -37 -4 -21 -12 -41 -18 -45 -18 -11 -16 -290 1 -296 10 -3 10 -7 0
-20 -10 -12 -10 -14 0 -8 8 5 12 0 13 -16 3 -56 9 -82 21 -89 10 -7 10 -9 -2
-9 -10 0 -11 -3 -3 -8 6 -4 14 -27 18 -52 4 -25 10 -47 14 -50 7 -4 21 -62 23
-97 1 -7 5 -10 10 -7 7 4 10 -9 7 -32 0 -3 8 -12 18 -21 11 -9 12 -12 3 -8
-13 6 -13 5 0 -7 8 -7 16 -20 18 -28 2 -8 8 -18 14 -21 6 -4 5 -9 -3 -12 -9
-4 -8 -6 5 -6 12 -1 16 -6 12 -16 -3 -8 -1 -15 5 -15 5 0 16 -15 24 -32 8 -18
15 -28 16 -23 0 6 4 -1 8 -15 4 -14 13 -24 19 -22 7 1 11 -1 10 -5 -3 -14 13
-53 22 -53 5 0 12 -9 15 -20 4 -11 10 -18 14 -15 5 2 13 -6 19 -19 6 -14 20
-27 32 -31 11 -3 18 -10 16 -14 -3 -4 8 -22 24 -40 17 -18 30 -30 30 -26 0 3
11 -6 25 -20 14 -14 31 -25 36 -25 6 0 17 -7 25 -15 9 -8 24 -15 35 -15 11 0
17 -4 14 -10 -4 -6 8 -10 27 -11 29 -1 60 -3 108 -8 9 0 17 -12 18 -28 1 -15
5 -29 10 -32 4 -3 8 -15 8 -26 4 -51 15 -109 24 -120 10 -12 18 -45 19 -78 1
-12 5 -16 14 -11 7 5 6 0 -3 -11 -9 -11 -10 -16 -2 -11 6 4 12 4 13 -1 3 -30
11 -59 22 -72 10 -12 9 -13 -3 -6 -11 6 -11 4 2 -11 17 -20 18 -22 18 -55 0
-13 4 -18 13 -13 7 5 6 0 -3 -11 -9 -11 -10 -16 -2 -11 7 4 13 2 14 -6 0 -7 2
-17 3 -23 2 -5 3 -18 4 -28 0 -10 6 -15 11 -12 6 3 10 1 10 -5 0 -6 10 -24 21
-39 12 -16 18 -34 15 -40 -4 -6 -2 -11 4 -11 11 0 36 -58 32 -73 -1 -5 2 -6 8
-2 6 4 13 -7 16 -24 4 -17 13 -36 20 -42 8 -6 14 -18 14 -25 0 -8 6 -13 13
-12 6 2 11 -3 9 -10 -1 -7 5 -15 13 -18 8 -4 15 -12 15 -19 0 -7 7 -15 15 -19
8 -3 15 -14 15 -25 0 -11 9 -21 21 -24 12 -3 18 -10 15 -16 -4 -6 2 -19 14
-31 11 -11 20 -25 20 -30 0 -6 7 -13 15 -16 8 -4 15 -13 15 -21 0 -8 4 -12 9
-9 5 3 12 -5 15 -19 3 -13 15 -29 26 -35 11 -6 17 -16 14 -22 -5 -7 -2 -8 5
-4 8 5 14 1 18 -12 2 -11 14 -23 26 -26 12 -3 18 -8 15 -11 -7 -8 98 -115 113
-115 6 0 8 -4 5 -9 -6 -10 23 -26 39 -22 6 2 7 -1 3 -5 -4 -4 4 -17 17 -30 14
-13 25 -27 25 -32 0 -5 9 -12 21 -15 13 -4 18 -10 13 -18 -4 -8 -3 -10 5 -5 7
4 15 -2 20 -16 6 -13 10 -17 10 -10 1 7 15 -2 31 -20 17 -18 30 -28 31 -23 0
6 4 1 8 -10 5 -11 14 -20 22 -20 8 -1 13 -6 11 -13 -1 -7 5 -12 13 -12 9 0 18
-7 21 -15 4 -8 12 -15 19 -15 22 0 44 -35 44 -70 0 -52 -9 -91 -20 -84 -5 3
-9 -1 -9 -8 0 -7 -11 -26 -25 -41 -14 -15 -23 -27 -20 -27 4 0 0 -6 -7 -14 -7
-8 -22 -26 -32 -40 -10 -14 -24 -26 -31 -26 -7 0 -26 -7 -41 -15 -16 -8 -39
-15 -51 -15 -13 0 -23 -4 -23 -9 0 -5 -14 -12 -30 -16 -19 -4 -28 -11 -23 -18
4 -7 -2 -5 -12 3 -10 8 -16 10 -12 3 5 -8 -4 -14 -28 -19 -19 -3 -32 -10 -29
-15 3 -5 -4 -10 -15 -10 -12 -1 -25 -3 -31 -4 -5 -1 -15 -3 -21 -4 -5 0 -7 -6
-3 -13 4 -6 3 -8 -3 -5 -5 3 -24 -3 -42 -14 -19 -11 -30 -14 -26 -7 4 7 0 5
-8 -5 -8 -10 -19 -17 -23 -16 -23 4 -45 -2 -39 -11 3 -5 0 -10 -7 -10 -7 0
-30 -9 -51 -20 -20 -11 -44 -20 -53 -20 -8 0 -13 -4 -10 -9 4 -5 -8 -13 -26
-16 -18 -4 -36 -12 -39 -17 -3 -5 -13 -10 -21 -12 -9 -1 -24 -8 -34 -16 -16
-13 -17 -13 -10 0 4 8 1 7 -8 -4 -8 -10 -19 -15 -25 -12 -5 4 -14 -2 -20 -11
-6 -10 -11 -14 -11 -10 0 5 -16 0 -36 -12 -19 -12 -32 -17 -29 -11 6 10 -56
-20 -65 -31 -3 -3 -21 -9 -41 -13 -21 -4 -42 -13 -49 -21 -7 -8 -21 -15 -31
-15 -11 0 -19 -4 -19 -10 0 -5 -11 -10 -24 -10 -14 0 -31 -7 -40 -15 -8 -9
-18 -16 -21 -15 -24 1 -36 -2 -48 -15 -8 -8 -30 -17 -48 -20 -18 -3 -38 -10
-44 -15 -10 -8 -40 -17 -68 -19 -5 -1 -5 -6 -2 -11 4 -6 3 -10 -2 -9 -22 6
-82 -14 -76 -25 4 -6 -2 -4 -12 4 -11 9 -16 10 -11 3 7 -12 -5 -18 -27 -14 -4
1 -10 -6 -14 -15 -5 -13 -7 -13 -14 -2 -6 9 -9 9 -9 1 0 -7 -16 -15 -35 -19
-22 -4 -32 -10 -28 -18 4 -6 -2 -4 -12 4 -11 9 -16 10 -11 2 7 -11 -5 -17 -27
-13 -4 1 -10 -6 -14 -15 -5 -13 -7 -13 -14 -2 -6 9 -9 9 -9 1 0 -7 -16 -15
-35 -19 -19 -3 -32 -10 -29 -15 3 -5 -2 -9 -10 -9 -8 0 -21 -6 -28 -14 -8 -7
-24 -17 -36 -20 -12 -4 -20 -11 -17 -16 3 -5 -9 -11 -26 -15 -23 -5 -28 -9
-18 -16 11 -7 10 -9 -3 -9 -10 0 -19 1 -21 3 -1 1 -17 -13 -35 -31 -18 -18
-32 -27 -32 -20 0 8 -5 6 -11 -5 -5 -9 -17 -17 -25 -17 -8 0 -13 -4 -9 -9 3
-5 -4 -13 -16 -16 -11 -4 -18 -9 -15 -12 2 -3 -15 -24 -38 -48 -24 -23 -46
-50 -49 -59 -4 -10 -12 -14 -18 -10 -7 4 -9 3 -6 -3 8 -13 -17 -36 -27 -25 -4
4 -7 2 -6 -3 4 -17 -12 -55 -20 -50 -5 3 -11 -8 -15 -25 -4 -16 -10 -30 -15
-30 -5 0 -11 -13 -15 -29 -3 -16 -13 -32 -21 -35 -9 -3 -12 -10 -9 -16 3 -6
-1 -13 -9 -16 -9 -3 -16 -12 -16 -20 0 -12 450 -14 3050 -14 l3049 0 -36 69
c-21 39 -42 67 -48 63 -5 -3 -3 3 5 13 8 10 10 16 3 12 -7 -4 -15 4 -21 21 -5
15 -22 39 -37 54 -15 16 -25 28 -22 28 4 0 -4 10 -16 23 -12 13 -25 22 -29 20
-5 -2 -8 3 -8 12 0 8 -7 18 -15 21 -8 4 -15 12 -15 20 0 7 -11 21 -25 30 -14
9 -22 20 -19 25 3 5 2 9 -3 8 -14 -4 -43 13 -38 21 3 4 -6 11 -20 14 -14 4
-25 11 -25 16 0 6 -7 10 -15 10 -8 0 -23 9 -32 20 -10 11 -23 20 -31 20 -7 0
-10 5 -7 10 3 6 2 10 -4 10 -5 0 -33 16 -62 35 -30 19 -59 35 -66 35 -8 0 -32
12 -56 27 -23 14 -43 25 -45 24 -6 -6 -62 11 -62 19 0 4 -16 11 -35 14 -20 4
-33 11 -30 15 2 5 -12 12 -33 16 -20 4 -40 11 -43 16 -3 6 -21 12 -39 14 -19
3 -36 9 -40 14 -3 6 -25 13 -48 17 -23 4 -42 10 -42 14 0 8 -67 25 -82 22 -5
-1 -8 2 -8 8 0 5 -16 12 -35 16 -19 3 -35 10 -35 14 0 4 -18 10 -40 14 -23 3
-39 10 -36 15 3 5 -12 11 -34 15 -22 3 -40 10 -40 16 0 5 -16 12 -35 16 -19 3
-32 10 -29 15 3 5 -1 9 -8 9 -7 0 -35 11 -62 25 -27 13 -54 21 -59 18 -6 -3
-7 -1 -3 5 6 11 -6 17 -27 13 -4 -1 -10 5 -13 14 -3 8 -21 17 -40 21 -19 3
-33 9 -30 11 3 3 -18 17 -47 32 -29 14 -54 29 -57 33 -3 3 -22 9 -42 13 -21 4
-36 11 -33 15 3 4 -15 11 -40 14 -25 4 -45 11 -45 16 0 6 -18 13 -40 16 -22 4
-40 10 -40 15 0 5 -4 9 -9 9 -8 0 -35 10 -71 26 -3 1 -15 5 -27 9 -13 4 -23
11 -23 15 0 5 -23 11 -51 15 -38 5 -59 15 -85 40 -22 22 -30 35 -22 38 8 3 6
6 -4 6 -10 1 -18 7 -18 15 0 8 -7 16 -15 20 -8 3 -14 11 -13 18 2 7 -3 12 -9
10 -7 -1 -13 5 -13 14 0 9 -7 22 -16 28 -18 14 -25 120 -6 114 4 -2 8 2 10 7
3 11 42 29 55 26 5 -1 5 3 2 9 -4 7 2 14 15 17 15 4 18 8 10 13 -8 5 -1 10 19
15 17 4 29 10 26 15 -3 5 4 11 15 15 11 4 18 11 15 16 -4 5 1 9 9 9 9 0 16 7
16 15 0 8 11 17 25 21 14 4 24 8 22 11 -10 9 172 179 186 175 5 -1 6 2 2 8 -3
5 -1 10 4 10 6 0 11 5 11 11 0 6 14 22 30 36 17 13 30 31 30 39 0 9 4 13 9 10
5 -3 19 10 32 28 13 19 27 32 31 30 4 -3 8 2 8 11 0 9 11 27 25 40 13 14 22
25 19 25 -3 0 1 6 8 14 7 7 20 24 28 36 8 12 20 28 25 34 6 6 21 28 35 48 14
21 29 38 33 38 5 0 6 4 3 8 -3 5 5 20 17 33 12 13 22 27 22 32 0 4 5 11 12 15
6 4 15 20 18 35 4 15 11 27 15 27 4 0 11 12 15 27 3 15 10 30 13 33 10 7 52
95 52 109 0 6 5 11 10 11 6 0 10 10 10 23 0 12 7 35 15 51 8 15 15 37 15 47 0
10 4 20 10 24 5 3 7 12 3 20 -3 8 0 15 6 15 6 0 11 9 11 19 0 11 5 32 12 48
15 36 13 31 22 86 5 26 12 50 17 52 4 3 11 37 15 75 5 54 10 70 23 71 19 2 75
6 114 8 16 0 25 5 22 11 -3 6 3 10 14 10 11 0 23 5 27 11 3 6 22 17 40 25 19
8 34 19 34 26 0 6 3 9 6 6 6 -7 54 39 54 52 0 6 7 10 15 10 8 0 14 4 13 9 -2
5 8 19 23 33 14 13 28 32 32 41 4 11 12 15 18 11 7 -4 9 -3 6 3 -4 5 1 19 11
30 22 25 39 52 55 86 7 15 16 25 19 22 2 -3 11 14 18 37 6 24 15 45 19 48 9 8
51 96 51 109 0 6 4 11 9 11 5 0 13 29 16 65 4 36 11 63 15 60 5 -3 11 17 15
45 4 27 10 50 15 50 4 0 10 27 13 59 8 75 10 85 20 92 5 3 8 48 8 100 -1 96
-2 111 -15 141 -9 20 -14 46 -15 74 -1 12 -14 36 -30 53 -17 18 -30 34 -30 36
-1 3 -4 4 -7 3 -3 -2 -10 5 -15 14 -5 9 -22 19 -39 23 -26 6 -29 10 -28 41 1
19 -1 36 -3 38 -2 2 -31 6 -63 10 -33 3 -63 11 -67 17 -4 8 -8 7 -12 -2 -3 -8
-5 -2 -4 13 1 15 5 24 9 22 4 -3 9 12 10 33 3 85 6 114 14 131 10 23 12 82 3
76 -4 -2 -8 28 -9 68 -1 40 -3 93 -5 118 -1 25 -3 64 -4 88 0 24 -4 41 -9 39
-4 -3 -7 7 -7 22 -1 26 2 28 45 31 25 1 56 4 70 6 14 1 43 3 65 3 26 1 35 4
27 10 -9 5 0 10 27 15 23 3 41 11 41 17 0 5 5 7 10 4 6 -3 10 -1 10 5 0 7 7
10 15 6 8 -3 18 1 22 9 5 8 20 16 33 19 14 2 27 5 30 6 3 2 9 2 13 1 5 -1 6 3
2 9 -3 5 -1 11 4 11 6 1 16 2 21 3 6 0 15 8 20 16 5 8 10 11 11 5 1 -22 18 32
18 63 1 17 5 32 10 32 10 0 22 95 15 115 -4 8 -10 13 -14 10 -5 -3 -11 4 -15
15 -4 11 -11 18 -16 15 -5 -4 -9 1 -9 9 0 8 -9 18 -20 21 -11 3 -20 13 -20 21
0 8 -7 14 -16 14 -8 0 -12 5 -9 10 3 6 -1 13 -9 16 -9 3 -16 17 -16 30 0 25
29 66 41 59 4 -3 12 2 19 10 7 8 21 15 31 15 10 0 21 5 24 10 4 6 11 8 16 4 5
-3 9 -2 8 3 -3 12 13 46 28 61 7 7 13 22 13 33 0 11 5 17 10 14 6 -4 10 5 8
24 -1 16 -6 27 -10 25 -4 -3 -9 0 -9 5 -1 6 -3 16 -4 21 -1 6 -3 15 -4 21 0 5
-6 7 -13 3 -6 -4 -8 -3 -5 3 3 5 0 21 -8 36 -7 14 -10 29 -7 33 4 4 1 4 -5 0
-7 -4 -13 -2 -13 3 0 6 -6 11 -14 11 -8 0 -16 7 -20 15 -3 8 -9 14 -13 13 -4
-2 -18 6 -30 16 -18 16 -20 26 -16 75 2 31 8 58 12 61 5 3 11 26 15 53 4 26
11 45 14 43 4 -2 19 12 32 32 14 20 28 39 31 42 3 3 9 15 13 27 5 16 1 25 -16
37 -12 9 -18 16 -13 16 5 0 -1 9 -13 20 -12 12 -22 25 -22 31 0 6 -4 8 -8 5
-5 -3 -9 1 -9 9 0 8 4 12 9 9 4 -3 9 7 9 23 4 75 8 96 21 104 10 7 10 9 -2 9
-10 0 -11 3 -3 8 6 4 15 40 18 80 4 39 12 72 16 72 5 0 8 3 7 8 -1 4 2 34 7
67 5 33 9 62 10 65 0 3 3 10 7 15 3 6 9 42 13 80 4 39 11 74 16 80 5 5 9 23 9
40 0 60 9 74 46 73 19 -1 35 1 37 3 1 2 16 32 33 66 26 51 29 64 18 74 -7 6
-12 16 -11 22 1 7 -4 11 -12 9 -8 -2 -11 3 -8 13 4 8 2 15 -3 15 -6 0 -10 9
-10 20 0 11 -5 19 -12 17 -7 -1 -12 3 -13 10 0 7 -9 23 -20 35 -11 13 -19 26
-17 30 1 5 -1 8 -6 7 -4 -1 -17 2 -28 6 -19 6 -20 11 -14 40 4 19 5 37 1 41
-3 4 0 4 7 0 6 -4 12 -3 12 3 0 5 17 9 38 9 76 -1 93 2 86 15 -6 9 -5 9 7 0 9
-7 19 -9 25 -4 5 5 27 12 49 15 22 3 41 5 43 6 1 0 2 14 2 30 0 17 4 30 9 30
5 0 12 20 15 45 4 25 12 45 18 45 5 0 8 7 5 15 -4 8 -2 17 3 20 21 13 4 46
-57 110 -18 19 -33 41 -33 50 0 9 -4 14 -9 11 -11 -7 -21 17 -21 50 0 18 -4
23 -12 18 -8 -5 -7 0 2 11 9 11 10 16 3 11 -10 -5 -13 5 -14 41 -1 26 -3 62
-4 78 -2 17 -3 47 -4 68 -1 21 -5 36 -9 33 -5 -3 -9 1 -9 9 0 8 3 12 7 10 4
-2 7 2 7 10 0 8 -4 12 -9 9 -4 -3 -8 16 -9 43 -3 143 0 135 -101 244 -16 16
-28 32 -28 34 0 3 -19 24 -42 48 -24 24 -45 47 -48 53 -3 5 -8 8 -12 7 -4 -2
-10 6 -13 17 -4 11 -11 18 -16 15 -5 -4 -9 -2 -9 3 0 22 -122 152 -142 152
-10 0 -18 5 -18 10 0 6 -9 10 -20 10 -10 0 -31 12 -47 28 -15 15 -25 27 -23
27 2 0 -5 10 -15 23 -11 12 -27 22 -37 22 -10 0 -18 4 -18 9 0 8 -85 27 -103
22 -5 -1 -6 3 -2 9 3 5 3 10 -2 10 -34 2 -89 14 -93 20 -3 5 -23 11 -45 16
-22 4 -43 12 -47 18 -12 18 -238 11 -238 -7 0 -5 -7 -4 -16 4 -9 7 -18 9 -22
3 -9 -12 -17 -13 -130 -20 -57 -3 -100 -11 -104 -17 -6 -9 -8 -8 -8 2 0 11 -3
11 -15 1 -12 -10 -15 -9 -15 4 0 10 -4 14 -10 11 -5 -3 -10 0 -10 7 0 7 -19
50 -41 96 -30 58 -47 82 -60 82 -11 0 -19 4 -19 10 0 5 -16 12 -35 16 -19 3
-35 10 -35 15 0 4 -16 11 -36 15 -25 4 -32 9 -23 15 10 6 7 8 -8 6 -12 0 -20
-4 -17 -9 2 -4 -11 -10 -31 -14 -19 -3 -33 -10 -30 -14 7 -11 -44 -21 -74 -15
-13 2 -43 6 -67 7 -24 2 -44 6 -44 9 0 4 -19 9 -41 12 -23 3 -45 10 -48 15 -3
5 -23 12 -43 16 -20 4 -38 11 -40 16 -2 4 -15 12 -30 15 -22 6 -28 4 -28 -9 0
-9 -5 -16 -12 -16 -6 0 -19 -7 -29 -16 -9 -8 -26 -17 -36 -19 -10 -1 -17 -7
-16 -13 1 -5 -9 -13 -23 -16 -15 -4 -22 -11 -18 -18 4 -6 3 -8 -4 -4 -6 3 -13
2 -17 -4 -4 -6 -10 -8 -15 -5 -4 3 -11 -7 -15 -22 -3 -16 -11 -31 -16 -34 -6
-3 -11 -19 -13 -34 -2 -16 -8 -31 -15 -33 -6 -2 -11 -12 -11 -22 0 -42 -9 -48
-51 -38 -21 6 -39 14 -39 18 0 4 -16 11 -35 14 -19 4 -35 11 -35 16 0 6 -7 10
-15 10 -8 0 -15 7 -15 16 0 9 -5 12 -12 8 -10 -6 -10 -5 -1 7 8 9 9 19 3 25
-4 5 -11 29 -15 54 -4 25 -12 48 -18 52 -8 5 -7 8 3 8 11 0 12 2 3 8 -7 4 -14
35 -16 69 l-4 61 56 -5 c31 -3 57 -10 59 -14 2 -5 19 -11 38 -15 19 -3 34 -10
34 -14 0 -4 14 -10 30 -12 24 -4 30 -1 30 14 0 10 6 18 13 18 8 0 7 4 -3 10
-9 6 -10 10 -3 10 6 0 15 20 19 45 3 25 10 45 15 45 5 0 9 23 9 51 0 31 -4 48
-10 44 -9 -6 -14 14 -11 43 1 7 -5 15 -14 19 -13 5 -14 7 -3 14 8 5 9 9 2 9
-7 0 -15 11 -18 25 -6 22 -9 24 -26 15 -11 -6 -20 -7 -20 -3 0 4 -7 -1 -15
-11 -11 -14 -15 -16 -15 -5 0 11 -2 11 -8 1 -5 -7 -31 -15 -58 -18 -27 -4 -53
-7 -59 -8 -5 0 -13 -5 -17 -11 -5 -6 -12 -5 -20 4 -11 12 -10 13 2 6 12 -6 12
-5 4 4 -15 16 -6 91 13 109 7 7 13 30 13 50 0 25 3 32 9 23 6 -9 11 3 16 35 5
39 4 50 -10 60 -9 7 -23 10 -31 7 -8 -3 -14 -1 -14 5 0 10 -64 27 -87 23 -7
-1 -13 3 -13 9 0 12 -37 14 -44 1z m-727 -1092 c13 -18 17 -29 10 -25 -8 4 -5
0 5 -8 11 -9 16 -16 10 -16 -5 0 0 -7 10 -15 14 -11 16 -15 5 -15 -10 -1 -9
-3 4 -11 9 -5 17 -19 17 -29 0 -10 6 -23 13 -27 16 -11 47 -67 47 -87 0 -9 5
-15 11 -13 6 1 13 -6 14 -15 3 -16 -5 -18 -56 -18 -37 0 -59 -4 -59 -11 0 -8
-6 -7 -17 2 -11 10 -14 10 -9 2 4 -7 2 -13 -3 -13 -6 0 -11 6 -11 13 0 8 -4 7
-10 -3 -6 -10 -10 -11 -10 -2 0 6 -7 12 -15 12 -14 0 -16 19 -14 135 0 77 5
133 10 129 5 -3 9 3 9 14 0 15 8 32 15 32 1 0 12 -14 24 -31z m-1000 -52 c12
-9 13 -9 7 1 -5 8 -1 12 11 12 11 0 25 -6 32 -12 11 -10 13 -10 7 0 -4 6 -2
12 3 12 6 0 11 -4 11 -10 0 -5 3 -9 8 -9 4 1 32 1 63 0 40 -1 62 -7 79 -21 13
-11 27 -20 32 -20 5 0 6 -5 2 -12 -4 -6 -3 -8 3 -5 17 10 53 -23 53 -48 0 -19
-4 -23 -17 -18 -10 4 -21 11 -25 17 -9 13 -99 8 -117 -7 -9 -8 -12 -8 -8 -1 3
6 0 11 -8 11 -8 0 -12 -4 -9 -9 3 -4 -16 -9 -43 -9 -26 -1 -59 -3 -73 -4 -14
-2 -48 -4 -77 -5 -35 -2 -50 -7 -46 -14 4 -6 0 -5 -9 2 -9 7 -19 9 -22 4 -3
-5 -26 -13 -51 -16 -24 -4 -44 -10 -42 -14 1 -4 -1 -7 -4 -7 -4 0 -15 -7 -25
-16 -20 -17 -63 -35 -77 -31 -5 1 -6 -2 -2 -8 3 -5 1 -11 -4 -11 -6 -1 -17 -2
-23 -3 -7 -1 -12 -8 -10 -16 3 -11 0 -11 -14 1 -10 8 -15 9 -11 3 4 -7 -20
-24 -63 -45 -38 -19 -69 -39 -70 -45 0 -7 -7 -14 -15 -18 -8 -3 -15 -13 -15
-21 0 -9 -4 -13 -10 -10 -5 3 -10 0 -10 -7 0 -8 -9 -21 -20 -31 -11 -9 -20
-23 -20 -31 0 -8 -7 -16 -15 -20 -8 -3 -15 -13 -15 -21 0 -9 -4 -13 -10 -10
-5 3 -10 -1 -10 -9 0 -8 -13 -31 -30 -49 -16 -19 -30 -39 -30 -45 0 -6 -6 -15
-13 -19 -7 -4 -20 -20 -30 -35 -18 -28 -40 -39 -32 -15 5 12 13 152 14 235 1
32 4 41 14 36 10 -6 10 -4 0 7 -15 15 -17 49 -4 49 5 0 11 9 14 21 3 12 10 18
17 14 6 -3 9 -3 8 2 -2 5 10 21 26 36 16 15 25 27 20 27 -5 0 -1 5 9 11 9 5
17 17 17 24 0 8 7 15 16 15 8 0 13 4 9 9 -3 5 4 12 15 16 11 3 19 10 17 14 -1
5 10 20 26 34 15 14 27 31 27 37 0 6 8 10 18 8 10 -2 16 2 14 11 -3 12 -1 12
14 0 10 -8 15 -9 11 -3 -4 7 4 15 21 19 15 3 34 13 42 20 16 14 18 15 51 15
11 0 17 5 14 10 -3 6 2 10 12 10 10 0 29 8 42 17 18 12 22 13 16 2 -5 -9 -1
-8 10 3 16 15 35 16 154 12 81 -3 142 -10 150 -17z m3841 3 c0 -5 20 -12 45
-16 25 -3 45 -10 45 -15 0 -5 9 -9 20 -9 22 0 62 -38 54 -52 -3 -4 2 -8 10 -8
9 0 16 -6 16 -14 0 -8 9 -18 20 -21 11 -4 18 -11 15 -16 -4 -5 1 -9 9 -9 8 0
18 -9 21 -20 4 -11 10 -18 15 -15 5 3 11 -4 15 -15 4 -11 11 -18 16 -15 5 4 9
-1 9 -10 0 -8 10 -20 23 -25 12 -5 18 -9 13 -9 -6 -1 0 -10 12 -21 12 -12 22
-25 22 -31 0 -6 4 -8 9 -4 5 3 12 -4 16 -15 4 -11 10 -18 14 -16 4 3 7 -4 8
-14 1 -11 -2 -22 -8 -25 -5 -4 -5 -13 0 -23 5 -9 9 -57 10 -107 2 -49 4 -108
5 -131 1 -27 -2 -41 -10 -41 -7 0 -12 3 -12 6 2 13 -18 50 -26 48 -5 -1 -10 7
-12 18 -2 11 -10 25 -18 31 -9 6 -16 17 -16 23 0 7 -4 9 -10 6 -5 -3 -11 -1
-11 4 -1 6 -2 16 -3 21 0 6 -5 9 -9 8 -5 -2 -15 12 -22 30 -8 17 -19 32 -25
32 -5 0 -10 9 -10 21 0 11 -4 18 -9 14 -5 -3 -12 4 -16 15 -3 11 -11 20 -17
20 -6 0 -8 3 -5 7 9 8 -40 53 -59 53 -7 0 -14 4 -14 10 0 5 -12 13 -27 16 -16
4 -31 12 -35 18 -7 11 -11 12 -45 15 -14 1 -15 3 -4 10 10 7 5 11 -18 16 -17
3 -31 11 -31 16 0 5 -3 8 -7 7 -14 -3 -113 49 -106 56 3 3 -5 7 -18 8 -13 1
-31 2 -39 4 -8 1 -30 2 -48 3 -23 1 -31 5 -26 14 5 9 4 9 -6 0 -8 -7 -18 -9
-24 -4 -10 7 -165 20 -252 21 -33 0 -48 18 -38 45 4 8 13 15 21 15 8 0 11 4 8
10 -3 5 6 12 20 16 13 3 22 10 19 15 -3 5 1 10 8 11 31 3 67 5 131 6 52 2 66
5 61 15 -6 9 -5 9 8 0 8 -7 18 -10 22 -6 10 10 37 13 31 3 -6 -10 15 -8 34 4
8 5 16 3 22 -5 6 -9 9 -10 9 -2 0 8 22 13 63 15 78 4 137 -2 137 -12z m-1262
-123 l3 -127 -26 0 c-15 0 -24 4 -21 8 3 5 -1 9 -9 9 -8 0 -12 -3 -10 -7 2 -4
-2 -7 -10 -7 -8 0 -12 4 -9 9 7 11 -30 10 -42 -2 -6 -6 -10 -3 -10 9 0 11 3
18 7 15 4 -2 10 9 14 26 4 16 10 30 15 30 5 0 11 14 15 30 4 17 11 30 16 30 5
0 9 3 8 8 -2 15 14 52 22 52 5 0 9 7 9 15 0 8 6 15 13 15 8 0 7 4 -3 11 -13 9
-13 10 0 6 12 -3 16 -28 18 -130z m-2274 -201 c-3 -8 -25 -17 -50 -21 -24 -3
-42 -10 -39 -15 3 -4 -9 -13 -25 -19 -17 -5 -30 -15 -30 -20 0 -6 -6 -11 -12
-11 -7 0 -28 -14 -47 -30 -18 -17 -41 -30 -49 -30 -8 0 -12 -3 -9 -7 6 -6 -12
-19 -52 -39 -8 -4 -23 -16 -33 -26 -10 -10 -25 -18 -34 -18 -8 0 -12 -4 -9
-10 3 -5 -6 -12 -20 -16 -14 -3 -25 -10 -25 -14 0 -5 -8 -11 -17 -14 -10 -3
-29 -16 -43 -29 -14 -13 -33 -26 -43 -30 -10 -4 -15 -12 -12 -17 4 -6 3 -10
-2 -9 -24 4 -43 -3 -43 -16 0 -8 -7 -15 -15 -15 -8 0 -46 -31 -85 -70 -39 -38
-68 -70 -65 -70 3 0 -6 -11 -21 -25 -33 -30 -34 -30 -27 -5 3 12 8 19 11 16 5
-6 52 60 52 73 0 5 7 11 15 15 8 3 15 13 15 21 0 9 5 13 10 10 6 -3 10 1 10
10 0 8 7 18 15 21 8 4 15 12 15 19 0 8 8 21 18 31 9 10 17 22 17 28 1 6 6 10
12 9 6 -1 15 11 18 29 5 20 10 26 15 18 5 -8 10 -2 15 19 4 18 9 30 12 28 2
-3 18 8 36 24 17 16 39 29 49 29 10 0 18 6 18 14 0 7 8 17 18 20 30 12 87 46
77 46 -5 1 1 7 15 14 14 8 28 12 33 9 4 -2 6 1 5 9 -2 7 7 14 20 16 12 2 20 8
17 13 -4 5 6 10 22 10 15 1 42 3 58 4 17 2 45 4 63 6 17 2 32 7 32 12 0 5 8 3
17 -4 10 -8 14 -9 10 -2 -5 8 5 13 30 16 21 2 39 4 40 5 1 1 0 -4 -3 -12z
m3099 -27 c15 0 27 -4 27 -9 0 -5 14 -11 30 -15 17 -4 30 -10 30 -15 0 -5 14
-11 30 -15 17 -4 28 -10 25 -15 -3 -5 8 -11 25 -15 17 -4 28 -11 24 -16 -3 -5
4 -9 15 -9 11 0 23 -5 26 -10 4 -6 11 -7 17 -4 7 4 8 2 4 -5 -5 -7 3 -13 23
-17 17 -4 29 -10 26 -14 -3 -4 6 -11 20 -14 14 -4 25 -12 25 -19 0 -7 9 -18
20 -25 11 -7 20 -18 20 -26 0 -8 7 -16 15 -20 8 -3 14 -11 13 -18 -2 -7 2 -12
9 -11 6 2 15 -7 18 -19 4 -11 19 -34 34 -51 14 -16 25 -33 24 -38 -2 -4 6 -11
17 -14 11 -4 20 -13 20 -21 0 -8 5 -14 10 -14 6 0 10 -7 10 -15 0 -8 5 -15 10
-15 6 0 18 -18 27 -40 10 -22 22 -40 28 -40 13 0 36 -50 29 -62 -3 -4 -10 -6
-15 -2 -5 3 -7 10 -4 15 4 5 0 9 -8 9 -8 0 -20 13 -27 30 -7 16 -16 27 -21 24
-5 -3 -10 0 -10 5 -1 6 -2 16 -3 21 0 6 -5 9 -9 8 -5 -2 -15 8 -22 22 -7 14
-17 24 -22 23 -4 -2 -8 0 -8 5 0 14 -68 82 -82 82 -8 0 -11 5 -8 10 3 6 -1 10
-9 10 -8 0 -19 7 -24 16 -5 9 -12 16 -15 15 -16 -1 -36 12 -31 20 3 5 0 10 -5
10 -6 1 -15 2 -19 3 -5 0 -16 9 -26 19 -10 9 -23 17 -31 17 -7 0 -15 7 -19 15
-3 8 -13 15 -21 15 -9 0 -14 4 -11 9 4 5 -8 12 -25 16 -23 5 -28 9 -18 16 11
7 11 9 -3 9 -9 0 -23 6 -30 13 -7 7 -28 22 -45 32 -18 11 -33 23 -33 28 0 4
-4 6 -9 3 -5 -3 -11 1 -15 9 -3 8 -13 15 -22 15 -10 0 -14 3 -11 7 4 4 -5 13
-20 20 -78 38 -93 62 -35 56 20 -2 49 -4 65 -4z m-4236 -1454 c0 -17 -6 -18
-26 -6 -16 11 -6 32 13 25 7 -3 13 -11 13 -19z m5203 12 c0 -2 -9 -12 -19 -21
-19 -17 -19 -17 -14 3 3 12 12 21 19 21 8 0 14 -2 14 -3z"/>
</g>
</svg>
