<?xml version="1.0" standalone="no"?>
<!DOCTYPE svg PUBLIC "-//W3C//DTD SVG 20010904//EN"
 "http://www.w3.org/TR/2001/REC-SVG-20010904/DTD/svg10.dtd">
<svg version="1.0" xmlns="http://www.w3.org/2000/svg"
 width="668.000000pt" height="668.000000pt" viewBox="0 0 668.000000 668.000000"
 preserveAspectRatio="xMidYMid meet">
<metadata>
Created by potrace 1.11, written by Peter Selinger 2001-2013
</metadata>
<g transform="translate(0.000000,668.000000) scale(0.100000,-0.100000)"
fill="#000000" stroke="none">
<path d="M3250 5314 c-33 -6 -68 -23 -107 -51 -29 -21 -33 -22 -67 -8 -46 19
-90 19 -132 -1 -35 -17 -40 -16 -89 15 -37 24 -128 27 -178 6 -19 -8 -47 -28
-62 -44 -23 -24 -34 -28 -61 -24 -38 6 -119 -28 -134 -57 -20 -37 -42 -50 -84
-50 -74 0 -163 -78 -181 -158 -5 -27 -16 -37 -57 -57 -61 -29 -108 -89 -108
-136 0 -11 -4 -19 -9 -19 -16 0 -80 -71 -95 -104 -32 -70 -41 -133 -26 -188 7
-29 18 -61 24 -71 9 -13 5 -27 -14 -64 -36 -68 -35 -167 2 -241 24 -46 26 -58
19 -100 -10 -49 -2 -112 17 -148 8 -16 9 -45 2 -105 -14 -116 -12 -229 6 -404
9 -82 18 -174 21 -204 l5 -54 -28 8 c-95 24 -154 12 -207 -41 -27 -26 -39 -49
-68 -124 -19 -47 -19 -314 0 -395 24 -109 64 -229 96 -290 41 -77 148 -251
172 -277 29 -32 74 -51 138 -57 59 -6 60 -7 67 -41 18 -93 38 -173 52 -205 9
-19 23 -52 32 -73 26 -58 127 -191 221 -290 7 -7 13 -15 13 -17 0 -2 -32 -21
-72 -42 -116 -60 -177 -140 -154 -199 4 -10 -3 -29 -17 -48 -13 -17 -30 -47
-37 -67 -14 -38 -11 -37 -155 -69 -22 -5 -70 -16 -107 -24 -37 -9 -82 -16
-100 -17 -43 -1 -130 -31 -135 -46 -3 -7 14 -23 36 -37 33 -21 45 -24 66 -16
50 19 65 13 65 -24 0 -18 7 -39 15 -46 17 -15 45 -6 45 13 0 10 23 18 73 26
176 27 264 40 297 43 33 3 35 2 32 -27 -2 -16 -7 -41 -12 -55 -21 -63 -42
-160 -37 -174 4 -9 17 -16 31 -16 18 0 25 7 29 27 27 126 33 152 40 159 4 4 7
20 7 35 0 14 7 40 15 55 11 23 15 25 15 10 0 -11 -4 -33 -10 -50 -19 -64 -40
-153 -40 -174 0 -15 5 -20 15 -16 22 9 18 -9 -5 -24 -43 -27 -19 -52 50 -52
21 0 42 -4 45 -10 3 -5 18 -10 33 -10 15 0 53 -14 85 -31 32 -17 65 -28 72
-25 9 3 15 26 17 67 l3 61 28 -26 c19 -18 29 -39 34 -71 5 -37 9 -46 22 -42 9
2 22 -2 29 -10 13 -14 62 -18 62 -5 0 31 -86 140 -221 279 -87 90 -159 170
-159 178 0 8 -4 15 -10 15 -5 0 -10 5 -10 10 0 12 -51 92 -65 102 -5 4 -27 8
-47 8 -21 0 -38 4 -38 8 0 5 14 21 30 37 31 30 40 71 19 92 -7 7 -9 19 -6 27
9 22 136 101 176 109 30 6 40 1 110 -54 42 -34 78 -66 80 -71 4 -12 -30 -37
-45 -31 -14 5 -24 -28 -24 -85 0 -55 29 -114 90 -188 102 -121 128 -175 149
-304 15 -88 14 -140 -1 -140 -23 0 16 -20 39 -20 20 0 22 5 25 95 2 52 0 95
-4 95 -5 0 -8 9 -8 21 0 11 -5 30 -11 41 -10 19 -9 20 12 14 150 -47 182 -53
334 -66 181 -16 333 -3 493 41 51 14 58 9 44 -28 -6 -15 -13 -67 -16 -114 -5
-72 -3 -88 9 -93 19 -7 47 3 39 15 -7 13 14 151 33 219 22 74 45 113 108 183
69 76 115 165 115 222 0 55 -8 75 -29 75 -9 0 -27 12 -41 27 l-25 26 29 21
c16 12 47 38 70 58 24 22 51 38 66 38 50 0 138 -41 195 -91 34 -30 35 -33 20
-55 -20 -31 -20 -36 15 -79 17 -21 30 -41 30 -46 0 -4 -19 -9 -41 -11 -29 -2
-45 -9 -53 -22 -72 -128 -85 -144 -252 -316 -117 -121 -194 -218 -194 -244 0
-11 36 -6 55 8 10 7 27 11 37 8 15 -3 18 2 18 30 0 22 9 45 27 66 31 39 43 29
43 -36 l0 -43 38 7 c20 4 55 16 77 27 22 11 49 25 59 30 11 5 45 12 77 14 55
5 82 24 58 39 -6 4 -6 11 1 20 9 10 8 29 -5 76 -35 133 -42 167 -35 178 4 6
12 -13 19 -42 7 -29 16 -71 21 -93 35 -157 31 -146 59 -143 24 3 26 6 23 48
-2 25 -7 50 -12 55 -4 6 -10 28 -14 50 -3 22 -9 55 -12 73 l-7 34 54 -4 c122
-10 333 -50 344 -65 19 -25 55 0 55 39 0 30 0 30 41 24 32 -5 49 -2 80 16 22
12 38 27 36 32 -5 16 -96 44 -145 45 -24 1 -67 7 -95 15 -29 8 -79 19 -112 26
-108 22 -123 29 -134 61 -6 16 -19 42 -30 57 -13 19 -19 43 -19 74 1 36 -5 55
-26 82 -28 38 -106 96 -128 96 -7 0 -22 7 -32 15 -11 8 -28 15 -38 15 -10 0
-18 5 -18 11 0 8 84 115 110 139 53 49 134 188 164 280 10 30 22 65 27 78 5
13 9 36 9 51 0 15 5 42 11 60 10 29 14 31 61 31 81 0 156 49 192 124 8 18 37
66 65 108 70 108 96 168 140 323 17 62 41 229 41 289 0 55 -21 165 -42 221
-41 109 -152 162 -251 120 -49 -20 -50 -20 -43 23 40 242 57 549 36 664 -11
62 -10 70 8 95 32 46 45 101 38 159 -5 42 -2 60 12 86 32 57 45 130 32 179
-13 53 -37 106 -50 114 -6 3 -10 31 -10 62 0 43 -5 63 -23 87 -20 26 -24 43
-24 106 -1 61 -5 84 -26 120 -28 52 -98 110 -131 110 -26 0 -56 28 -56 52 0 9
-16 30 -35 47 -33 29 -49 36 -100 43 -11 2 -25 14 -32 28 -6 14 -33 45 -58 70
l-46 45 -102 0 c-94 0 -103 2 -120 23 -27 32 -75 55 -103 48 -20 -5 -30 0 -51
24 -55 66 -137 86 -209 51 -24 -12 -43 -16 -49 -10 -13 13 -112 11 -133 -2
-14 -9 -26 -7 -54 9 -38 21 -106 33 -148 26z"/>
<path d="M2417 869 c35 -68 58 -100 96 -132 123 -104 175 -153 210 -199 20
-28 37 -44 37 -36 0 31 -61 108 -154 193 -53 50 -117 119 -141 155 -40 60 -81
110 -89 110 -2 0 17 -41 41 -91z"/>
<path d="M4228 905 c-16 -18 -28 -36 -28 -39 0 -14 -80 -114 -107 -136 -58
-44 -155 -143 -179 -182 -34 -53 -26 -70 10 -22 31 42 83 92 156 151 75 61
120 106 120 121 0 8 8 26 18 40 25 37 53 102 44 101 -4 0 -19 -15 -34 -34z"/>
<path d="M2960 406 c0 -16 112 -52 185 -60 50 -5 50 -5 10 5 -41 10 -160 46
-182 56 -7 2 -13 2 -13 -1z"/>
<path d="M3528 373 c7 -3 16 -2 19 1 4 3 -2 6 -13 5 -11 0 -14 -3 -6 -6z"/>
<path d="M3438 353 c6 -2 18 -2 25 0 6 3 1 5 -13 5 -14 0 -19 -2 -12 -5z"/>
</g>
</svg>
